<?xml version="1.0" encoding="UTF-8"?>
<svg xmlns="http://www.w3.org/2000/svg" viewBox="0 0 1536 1926.08">
  <defs>
    <style>
      .cls-1 {
        fill: #e7a6b4;
      }

      .cls-1, .cls-2 {
        stroke-width: 0px;
      }

      .cls-2 {
        fill: #28307e;
      }
    </style>
  </defs>
  <g id="Layer_5" data-name="Layer 5">
    <rect class="cls-1" width="1536" height="150"/>
  </g>
  <g id="Layer_2" data-name="Layer 2">
    <path class="cls-2" d="m0,60.88C28.5,33.49,114.5,2.49,163.5,7.49s85,50,120,53,66-25,101-16,40,66,87,44,59.86-80.07,110.43-81.53c50.32-1.46,61.27,51.33,91.11,80.04,24.71,23.77,47.21,28.82,74.92,10.02,25.7-17.44,50.46-38.78,82.55-42.53,60-7,105-31,139-29s63.74,24.44,73.87,36.72c30.6,37.1,51.47,63.94,103.33,64.52,7.7.09,15.64-.28,22.66-3.46,18.77-8.5,34.63-22.34,54.23-30.46,24.93-10.34,51.78-17.85,78.92-18.31,56.73-.97,77-31,118-21s58,32,80,44,35.5,9.17,35.5,9.17v84.34H0V60.88Z"/>
  </g>
  <g id="Layer_4" data-name="Layer 4">
    <path class="cls-2" d="m376,233c70,18,72-16,121-18s33,51,47,98,131-6,169-21,80-55,143-53,49,106,129,100,96-110,162-114,34,76,106,88,110-74,185.6-45,4.4,98,4.4,161,80.94,26.3,66,90c-19,81,16,85,11,157s-138,101-138,175,118.83,84.31,80,158c-49,93,44,73,50,173s-119,58-123,116,92,138,113,193,12,187-53,154c-23.54-11.95-118-6-143,39-14.33,25.8-54.16,24.01-79.19,24.11-35.22.15-68.51-3.74-102.73,7.86-6.44,2.18-12.97,4.77-19.76,4.51-23.26-.89-40.89-31.28-55.39-46.25-17.1-17.66-36.54-33.62-61.93-36.23-68-7-89,30-148,71-54.38,37.79-127.24-8.63-184.56-15.9-8.71-1.1-17.63-1.96-25.64-5.56-47.44-21.39-23.84-114.37-90.81-112.54-73,2-100,76-155,84s-49,51-92,63-70-24-90-84-68-10-136-45-18-96-28-143c-9.33-43.84,49.47-41.04,68-70,4.32-6.75,13.79-54.66,17-62,15.37-35.13,55.5-28.71,54-69.99-2-55.01-116-117.01-126-132.01-32.19-48.28-7.06-118.41,39-147,29-18,57-52,28-98-14.94-23.7-67-48-84-103-13.29-43.01,96.9-80.14,111-124,18-56-48-115-94-164-51.3-54.64,29-75,55-135s12-120,138-78,63-52,133-34Zm1160-54H0v1579h1536V179Z"/>
  </g>
  <g id="Layer_3" data-name="Layer 3">
    <path class="cls-2" d="m1536,1872.12c-28.5,27.39-114.5,58.39-163.5,53.39-49-5-85-50-120-53-35-3-66,25-101,16-35-9-40-66-87-44s-59.86,80.07-110.43,81.53c-50.32,1.46-61.27-51.33-91.11-80.04-24.71-23.77-47.21-28.82-74.92-10.02-25.7,17.44-50.46,38.78-82.55,42.53-60,7-105,31-139,29-34-2-63.74-24.44-73.87-36.72-30.6-37.1-51.47-63.94-103.33-64.52-7.7-.09-15.64.28-22.66,3.46-18.77,8.5-34.63,22.34-54.23,30.46-24.93,10.34-51.78,17.85-78.92,18.31-56.73.97-77,31-118,21-41-10-58-32-80-44-22-12-35.5-9.17-35.5-9.17v-84.34h1536v130.12Z"/>
  </g>
</svg>