<?xml version="1.0" encoding="UTF-8"?>
<svg id="Layer_2" data-name="Layer 2" xmlns="http://www.w3.org/2000/svg" viewBox="0 0 579.9 673.55">
  <defs>
    <style>
      .cls-1 {
        fill: none;
        stroke: #28397e;
        stroke-miterlimit: 10;
        stroke-width: 4px;
      }

      .cls-2 {
        fill: #e46a86;
        stroke-width: 0px;
      }
    </style>
  </defs>
  <path class="cls-2" d="m48.87,546.9c-8.2-64.05-.58-72.97-7.7-138.66-6.91-63.75-17.44-86.32-21.83-95.01-8.19-16.23-13.1-20.02-16.69-34.66-7-28.55.17-60.95,17.97-84.73,6.47-8.64,12.44-13.46,24.39-23.11,22.42-18.1,39.06-25.09,73.18-42.37,40.6-20.56,31.94-18.22,62.91-33.38,26.16-12.8,45.39-20.87,78.32-34.66,30.53-12.79,46.05-19.27,59.06-23.11,29.35-8.67,49.87-14.73,74.46-12.84,53.77,4.13,90.81,43.46,109.13,62.91,23.31,24.75,35.58,49.23,41.08,61.63,10.59,23.84,14.18,43.51,16.69,57.77,2.46,14.02,3.82,22.1,2.57,33.38-2.35,21.23-12.01,36.45-16.69,43.65-6.99,10.75-10.02,11.55-28.24,32.1-10.99,12.4-18.56,21.88-25.68,30.81-22.65,28.4-33.97,42.6-39.8,56.49-9.59,22.84-10,43.12-10.27,56.49-.53,26.22,4.91,32.09,7.7,61.63,3.21,33.86,5.34,56.4-5.14,78.32-15.24,31.89-48.9,45.14-74.46,55.21-22.92,9.02-42.67,11.15-82.17,15.41-54.01,5.82-89.67,2.66-102.71,1.28-21.55-2.28-34.99-3.79-52.64-10.27-12.41-4.56-41.88-15.37-61.63-41.08-9.51-12.38-15.93-27.13-21.83-73.18l.02-.02Z"/>
  <path class="cls-1" d="m63.89,524.88c-8.2-64.05-.58-72.97-7.7-138.66-6.91-63.75-17.44-86.32-21.83-95.01-8.19-16.23-13.1-20.02-16.69-34.66-7-28.55.17-60.95,17.97-84.73,6.47-8.64,12.44-13.46,24.39-23.11,22.42-18.1,39.06-25.09,73.18-42.37,40.6-20.56,31.94-18.22,62.91-33.38,26.16-12.8,45.39-20.87,78.32-34.66,30.53-12.79,46.05-19.27,59.06-23.11,29.35-8.67,49.87-14.73,74.46-12.84,53.77,4.13,90.81,43.46,109.13,62.91,23.31,24.75,35.58,49.23,41.08,61.63,10.59,23.84,14.18,43.51,16.69,57.77,2.46,14.02,3.82,22.1,2.57,33.38-2.35,21.23-12.01,36.45-16.69,43.65-6.99,10.75-10.02,11.55-28.24,32.1-10.99,12.4-18.56,21.88-25.68,30.81-22.65,28.4-33.97,42.6-39.8,56.49-9.59,22.84-10,43.12-10.27,56.49-.53,26.22,4.91,32.09,7.7,61.63,3.21,33.86,5.34,56.4-5.14,78.32-15.24,31.89-48.9,45.14-74.46,55.21-22.92,9.02-42.67,11.15-82.17,15.41-54.01,5.82-89.67,2.66-102.71,1.28-21.55-2.28-34.99-3.79-52.64-10.27-12.41-4.56-41.88-15.37-61.63-41.08-9.51-12.38-15.93-27.13-21.83-73.18l.02-.02Z"/>
</svg>