<?xml version="1.0" encoding="UTF-8"?>
<svg xmlns="http://www.w3.org/2000/svg" viewBox="0 0 225.11 841.62">
  <defs>
    <style>
      .cls-1 {
        fill: #96a8e0;
      }

      .cls-1, .cls-2, .cls-3 {
        stroke-width: 0px;
      }

      .cls-2 {
        fill: #e46a86;
      }

      .cls-3 {
        fill: #e7a6b4;
      }
    </style>
  </defs>
  <g id="Layer_1" data-name="Layer 1">
    <path class="cls-3" d="m225.11,0C119.11,40.1,11.88,138.29,1.01,246.56c-12.79,127.42,97.55,248.72,224.1,298.17"/>
  </g>
  <g id="Layer_2" data-name="Layer 2">
    <path class="cls-2" d="m225.11,67.92c-29.65,16.07-51.71,33.11-66.69,46.15-28.24,24.58-48.97,43.09-58.97,74.36-4.88,15.27-4.96,27.27-5.13,51.28-.22,32.84-.44,63.96,16.67,92.31,14.96,24.8,25.52,18.21,39.74,41.03,19.13,30.7,21.41,76.96,2.56,110.26-13.48,23.82-25.22,18.86-67.95,60.26-27.54,26.68-41.3,40.02-50,61.54-18.52,45.83-2.41,90.95,1.28,101.28,6.99,19.58,16.15,32.49,29.49,51.28,14.22,20.04,29.51,41.58,52.56,57.69,38.07,26.6,81.78,27.53,106.44,25.64"/>
  </g>
  <g id="Layer_3" data-name="Layer 3">
    <path class="cls-1" d="m225.11,158.95c-8.68,1.49-28.35,6.21-43.62,23.08-13.08,14.45-16.33,30.53-19.23,44.87-1.02,5.06-3.98,21.32-1.28,42.31,1.19,9.25,3.37,25.07,12.82,42.31,3.2,5.84,1.55,1.46,21.79,29.49,3.25,4.5,6.68,9.3,12.82,14.1,6.21,4.86,12.35,7.49,16.69,8.97"/>
  </g>
</svg>