<?xml version="1.0" encoding="UTF-8"?>
<svg id="Layer_2" data-name="Layer 2" xmlns="http://www.w3.org/2000/svg" viewBox="0 0 406.67 1121.26">
  <defs>
    <style>
      .cls-1 {
        fill: #96a8e0;
        stroke-width: 0px;
      }
    </style>
  </defs>
  <path class="cls-1" d="m406.67,7.98c-16.41-4.82-45-10.95-79.98-6.36-25.52,3.35-52.85,6.94-74.72,27.03-17.23,15.83-12.55,24.89-50.87,96.98-8.22,15.47-12.5,22.69-17.49,30.21-19.88,29.97-33.99,38.89-44.51,52.46-29.66,38.24-28.21,109.92,3.18,144.67,10.81,11.96,28.93,20.16,65.18,36.56,34.47,15.6,45.84,15.75,58.82,30.21,12.96,14.44,26.55,42.04,17.49,63.59-9.58,22.78-34.82,15.83-87.44,49.28-30.56,19.43-46.37,37.23-52.46,44.51-12.29,14.68-25.08,29.96-30.21,54.05-6.47,30.44,3.23,56.45,4.77,60.41,7.52,19.41,15.44,21.62,15.9,33.39.77,19.9-21.17,33.33-42.92,50.87-22.59,18.21-77.21,62.24-89.03,116.05-6.62,30.16,1.94,55.46,9.54,77.9,18.95,55.98,57.69,87.16,76.31,101.74,19.14,14.99,84.28,66.02,125.59,44.51,16.58-8.63,31.43-30.05,38.15-39.74,12.89-18.59,13.27-27.05,27.03-39.74,6.99-6.45,22.91-21.15,41.33-19.08,14.19,1.6,16.99,11.71,31.8,17.49,10.87,4.24,27.97,6.06,54.55-6.36"/>
</svg>