<?xml version="1.0" encoding="UTF-8"?>
<svg xmlns="http://www.w3.org/2000/svg" viewBox="0 0 460.91 474.42">
  <defs>
    <style>
      .cls-1 {
        fill: #28307e;
      }

      .cls-1, .cls-2, .cls-3 {
        stroke-width: 0px;
      }

      .cls-2 {
        fill: #96a8e0;
      }

      .cls-3 {
        fill: #e46a86;
      }
    </style>
  </defs>
  <g id="Layer_1" data-name="Layer 1">
    <path class="cls-3" d="m460.91,261.33c-.53-120.56-15.1-204.96-144.09-244.52C224.2-11.6,73.59-10.62,24.5,72.22c-61.36,103.55,3.11,141.09,77.37,175.7,74.25,34.61,37.62,173.38,128.8,217.13,91.19,43.76,230.82-72.86,230.24-203.73Z"/>
  </g>
  <g id="Layer_2" data-name="Layer 2">
    <path class="cls-2" d="m390.18,278.41c21.04-71.53,27.35-124.12-42.07-170.4-49.85-33.23-139.27-59.33-183.03-18.93-54.7,50.49-23.14,84.15,14.73,117.81,37.87,33.66-8.41,109.39,37.87,151.47,46.28,42.08,149.67-2.3,172.51-79.94Z"/>
  </g>
  <g id="Layer_3" data-name="Layer 3">
    <path class="cls-1" d="m339.98,281.69c29.91-39.28,46.24-70.33,14.23-115.36-22.98-32.33-72.13-69.59-108.73-54.94-45.76,18.32-34.19,46.6-18.72,76.36,15.47,29.77-31.05,65.69-12.36,102.65,18.69,36.96,93.12,33.92,125.58-8.72Z"/>
  </g>
</svg>