<?xml version="1.0" encoding="UTF-8"?>
<svg id="Layer_1" data-name="Layer 1" xmlns="http://www.w3.org/2000/svg" viewBox="0 0 651.51 1481.03">
  <defs>
    <style>
      .cls-1 {
        fill: none;
      }

      .cls-1, .cls-2 {
        stroke-width: 0px;
      }

      .cls-2 {
        fill: #e46a86;
      }
    </style>
  </defs>
  <path class="cls-1" d="m186.5,1077.84c27-146.5-148.5-109.5-148.5-228.5s90.5-226.5,250-311.5c148.21-78.98,130-250-21.5-244.5-93.91,3.41-202.88,71.37-266.5,118.63v866.07c83.01-51.09,173.43-129.29,186.5-200.2Z"/>
  <path class="cls-2" d="m540.5,122.84C443,14.84,288,10.84,141.5.34,84.96-3.71,37.56,29.26,0,69.34v342.64c63.62-47.26,172.59-115.23,266.5-118.63,151.5-5.5,169.71,165.52,21.5,244.5-159.5,85-250,192.5-250,311.5s175.5,82,148.5,228.5c-13.07,70.91-103.49,149.12-186.5,200.2v202.99c55.38-41.52,134.91-94.67,141.5-147.19,16.5-131.5,226-153,247.5-256s-90-104-122.5-228.5,111.5-80,138.5-205,217.5-175,239.5-223.5-6.5-190-104-298Z"/>
</svg>