<?xml version="1.0" encoding="UTF-8"?>
<svg xmlns="http://www.w3.org/2000/svg" viewBox="0 0 745.42 622">
  <defs>
    <style>
      .cls-1 {
        fill: #96a8e0;
      }

      .cls-1, .cls-2 {
        stroke-width: 0px;
      }

      .cls-2 {
        fill: #e46a86;
      }
    </style>
  </defs>
  <g id="Layer_1" data-name="Layer 1">
    <path class="cls-2" d="m200,82C174,44,104,86,0,0v622c20-8.67,70.4-53.6,72-100,2-58,22-106,90-84s120.08,104.61,174,84c68-26,68-68,100-84s122-32,188,24,132-72,120-94-104-98-208-64-106,24-166-40-58-38-108-70-36-74-62-112Z"/>
  </g>
  <g id="Layer_2" data-name="Layer 2">
    <path class="cls-1" d="m0,242.94c4.66-1.16,11.59-2.21,19.49-.64,6.91,1.37,8.57,3.55,16.75,6.44,9.88,3.49,19.7,6.96,27.7,3.22,5.55-2.59,8.42-8.81,14.17-21.25,6.82-14.75,5.51-18.21,10.31-24.48,1.91-2.5,6.67-7.88,26.41-14.17,10.36-3.3,27.86-8.71,52.17-8.37,24.06.33,41.64,6.1,46.37,7.73,9.65,3.32,21.97,7.68,34.78,18.03,8.48,6.85,14.31,14.01,21.25,22.54,8.19,10.06,9.72,13.65,16.1,21.9,0,0,11.34,14.67,27.7,28.34,16.47,13.77,30.93,20.36,54.1,30.92,17.09,7.79,14.82,5.45,48.95,19.97,30.72,13.06,24.99,11.74,35.42,15.46,12.49,4.45,21.64,6.69,32.85,14.81,7.06,5.12,12.87,9.46,14.17,16.75,2.19,12.28-10.25,22.85-12.24,24.48-3.26,2.68-9.34,6.7-25.76,9.02-24.6,3.47-31.62-2.64-49.59.64-10.36,1.89-8.64,4.03-30.92,13.53-23.09,9.84-41.35,14.53-62.48,19.97-19.8,5.09-29.91,7.64-40.58,7.73-18.58.16-33.2-4.36-40.58-7.08-15.37-5.67-26.09-13.42-34.14-19.32-18.8-13.79-21.03-21.21-36.07-26.41-5.15-1.78-14.01-4.72-24.48-2.58-10.8,2.22-13.53,7.84-25.12,14.17-6.11,3.34-16.18,5.49-36.07,9.66-23.91,5.02-35.87,7.52-44.44,7.08-8.44-.43-21.17-2.32-36.24-9.66"/>
  </g>
</svg>