<?xml version="1.0" encoding="UTF-8"?>
<svg id="Layer_2" data-name="Layer 2" xmlns="http://www.w3.org/2000/svg" viewBox="0 0 812.41 463.54">
  <defs>
    <style>
      .cls-1 {
        fill: #96a8e0;
        stroke-width: 0px;
      }
    </style>
  </defs>
  <path class="cls-1" d="m0,105.5c11.73,3.36,28.5,7.61,49,11,43.19,7.13,50.94,1.79,54-1,9.75-8.89,3.03-20.29,10-39,7.93-21.3,26.16-32.08,48-45,6.67-3.94,38.43-22.23,87-29,45.59-6.35,80.99.92,100,5,23.69,5.09,49.52,10.63,78,29,27.96,18.03,44.77,39.57,52,49,25.84,33.7,44,69,44,69,6.9,13.42,8.45,18.16,15,23,8.01,5.92,22.43,11.21,69,0,29.35-7.07,29.9-10.68,54-17,29.9-7.84,64.64-16.96,100-3,9.57,3.78,30.54,12.06,43,33,19.95,33.53,2.88,74.03-3,88-16.73,39.71-55.9,78.68-101,84-20.42,2.41-54.01-.67-76-4-17.66-2.68-31.33-6.05-48,0-5.9,2.14-13.4,5.91-32,24-26.76,26.03-29.3,35.8-45,50-9.47,8.57-30.46,27.55-57,30-25.02,2.31-44.45,6.29-111-57-25.39-24.14-23.31-28.28-42-35.52-22.71-8.79-34.88-22.92-58-34.48-11.48-5.74-24.5-12.03-36-7-6.15,2.69-7.5,6.71-21,28-11.13,17.55-16.69,26.32-22,32-13.13,14.04-27.33,20.87-34,24-4.63,2.17-17.55,7.87-41,11-16.78,2.24-43.19,3.73-76-3"/>
</svg>