<?xml version="1.0" encoding="UTF-8"?>
<svg xmlns="http://www.w3.org/2000/svg" viewBox="0 0 752.57 1048.1">
  <defs>
    <style>
      .cls-1 {
        fill: none;
      }

      .cls-1, .cls-2, .cls-3 {
        stroke-width: 0px;
      }

      .cls-2 {
        fill: #28307e;
      }

      .cls-3 {
        fill: #96a8e0;
      }
    </style>
  </defs>
  <g id="Layer_1" data-name="Layer 1">
    <path class="cls-3" d="m455.57,297.02c-91,160.5-185.5,43.5-276.5,116.5-71.29,57.19-37,105.5-138.5,200-101.5,94.5,3.5,440,138.5,433,135-7,221.5-233,345.5-233s98.5,222,153,233c23.35,4.71,50.62-1.84,75-10.61V0c-178.9,73.36-213.58,149.9-297,297.02Z"/>
  </g>
  <g id="Layer_2" data-name="Layer 2">
    <g>
      <path class="cls-1" d="m613.26,438.5c-76.5,18-124,54.5-167.5,91s-73,80-43.5,127.5c29.5,47.5,156.5-40,211,0,45.93,33.71,53.16,39.01,139.31,15.9v-410.11l-1.31,4.72c-20.5,51-76.8,156.6-138,171Z"/>
      <path class="cls-2" d="m511.26,380c-124,98.5-233,47.5-298.5,149.5s-87,222.5-43.5,255c43.5,32.5,43,90.5,138,72.5,95-18,87.5-160.5,204-116.5s95,116.5,178.5,116.5h62.81v-184.1c-86.15,23.11-93.37,17.82-139.31-15.9-54.5-40-181.5,47.5-211,0-29.5-47.5,0-91,43.5-127.5s91-73,167.5-91c61.2-14.4,117.5-120,138-171l1.31-4.72V108.96c-157.22,150.19-129.29,182.05-241.31,271.04Z"/>
    </g>
  </g>
</svg>