<?xml version="1.0" encoding="UTF-8"?>
<svg xmlns="http://www.w3.org/2000/svg" viewBox="0 0 983.38 224.42">
  <defs>
    <style>
      .cls-1 {
        fill: #e46a86;
      }

      .cls-1, .cls-2 {
        stroke-width: 0px;
      }

      .cls-2 {
        fill: #e7a6b4;
      }
    </style>
  </defs>
  <g id="Layer_2" data-name="Layer 2">
    <path class="cls-2" d="m0,0c15.33,27.49,56.55,92.1,137.62,128.53,21,9.43,134.71,60.53,237.01-1.91C439.77,86.85,464.47,22.89,472.1,0"/>
  </g>
  <g id="Layer_3" data-name="Layer 3">
    <path class="cls-1" d="m140.48,0c39.91,48.03,70.71,56.95,91.74,55.9,22.96-1.15,39.42-14.45,72.63-9.56,8.1,1.19,25.48,3.94,42.05,15.29,27.11,18.58,25.38,41.94,53.52,93.66,18.87,34.69,28.31,52.04,45.87,61.16,41.52,21.58,95.21-7.24,99.39-9.56,44.04-24.39,45.84-59.04,76.45-61.16,18.5-1.28,22.12,11.07,61.16,30.58,33.62,16.81,76.8,38.39,101.3,22.94,25.39-16.01,6.37-56.42,36.32-80.28,16.65-13.26,25.85-3.43,68.81-17.2,23.85-7.65,47.92-15.36,66.9-36.32,7.44-8.21,23.45-28.79,26.76-65.45"/>
  </g>
</svg>