<?xml version="1.0" encoding="UTF-8"?>
<svg id="Layer_1" data-name="Layer 1" xmlns="http://www.w3.org/2000/svg" viewBox="0 0 70.16 60">
  <defs>
    <style>
      .cls-1 {
        fill: none;
        stroke: #e46a86;
        stroke-miterlimit: 10;
      }

      .cls-2 {
        fill: #e46a86;
        stroke-width: 0px;
      }
    </style>
  </defs>
  <polygon class="cls-2" points="0 20 0 40.03 20.28 40.03 40 60 40 0 20 19.86 0 20"/>
  <path class="cls-1" d="m44.97,34.9c.3-.24,2.25-1.88,2.34-4.69.1-3.05-2.09-4.9-2.34-5.1"/>
  <path class="cls-1" d="m47.73,17.79c1.1.64,3.08,1.99,4.69,4.41,2.07,3.13,2.32,6.22,2.34,7.59.07,4.25-1.78,7.21-2.21,7.86-1.69,2.59-3.85,3.95-4.97,4.55"/>
  <path class="cls-1" d="m49.8,9.52c7.5,3.91,12.24,11.68,12.28,20.14.04,8.48-4.65,16.3-12.14,20.28"/>
  <path class="cls-1" d="m52.42,2c10.45,5.18,17.14,15.82,17.24,27.45.11,11.82-6.61,22.73-17.24,28"/>
</svg>