<?xml version="1.0" encoding="UTF-8"?>
<svg xmlns="http://www.w3.org/2000/svg" viewBox="0 0 635.47 377.44">
  <defs>
    <style>
      .cls-1 {
        fill: #96a8e0;
      }

      .cls-1, .cls-2, .cls-3 {
        stroke-width: 0px;
      }

      .cls-2 {
        fill: #e46a86;
      }

      .cls-3 {
        fill: #e7a6b4;
      }
    </style>
  </defs>
  <g id="Layer_1" data-name="Layer 1">
    <path class="cls-3" d="m0,0c38.68,19.28,68.48,37.48,88.45,50.47,50.77,33.01,67.68,51.56,95.67,48.36,26.88-3.07,28.68-22.16,59.93-26.28,29.82-3.93,54.76,9.95,74.65,21.03,47.04,26.2,42.59,47.23,76.75,60.98,26.39,10.62,32.31-.62,98.83,0,54.33.51,85,1.22,110.39,22.08,15.93,13.08,36.27,39.43,29.44,63.08-8.08,28-50.28,38.55-76.75,38.9-32.59.44-36.97-14.65-78.85-21.03-20.39-3.1-64.55-9.83-93.57,13.67-27.35,22.15-12.98,48.25-35.75,65.19-30.11,22.4-66.38-15.01-154.55-17.87-49.13-1.6-87.02,8.42-104.09,13.67-40.83,12.56-71.28,31.3-90.55,45.21"/>
  </g>
  <g id="Layer_2" data-name="Layer 2">
    <path class="cls-2" d="m0,73.6c7.49-4.77,21.4-12.02,39.04-11.57,14,.36,26.24,5.48,44.16,17.87,46.54,32.19,41.83,51.55,67.29,60.98,25.32,9.37,30.18-9.7,89.37-10.51,46.6-.64,67.23,10.85,73.6,14.72,19.99,12.14,15.73,19.77,32.59,31.54,12.9,9.01,30.02,14.76,142.99,13.67,20.82-.2,41.06-.6,48.36,11.57,4.46,7.41,3.73,18.88-2.1,25.23-8.69,9.46-24.75,3.31-56.77-1.05-32.43-4.42-60.34-8.22-87.26,1.05-23.12,7.96-18.94,16.41-46.26,30.49-8.56,4.41-63.75,32.84-104.09,11.57-29.57-15.6-24.59-43.91-49.41-49.41-7.49-1.66-14.62-.56-72.54,30.49-36.45,19.54-42.41,23.82-55.72,26.28-25.46,4.72-48.2-2.66-63.22-9.46"/>
  </g>
  <g id="Layer_3" data-name="Layer 3">
    <path class="cls-1" d="m0,111.45c33.14,6.87,59.89,15.28,78.99,22.08,59,21.01,62.54,32.95,63.08,37.85,1.43,13.03-12.87,26.1-21.03,31.54-14.98,10-22.6,3.17-38.9,13.67-14.38,9.27-12.17,16.98-26.28,23.13-9.79,4.26-19.3,4.23-29.44,4.21-11.14-.03-20.26-1.68-26.42-3.15"/>
  </g>
</svg>